<svg xmlns="http://www.w3.org/2000/svg" xmlns:xlink="http://www.w3.org/1999/xlink" version="1.1" x="0px" y="0px" viewBox="0 0 2048 2560" style="enable-background:new 0 0 2048 2048;" xml:space="preserve"><g><g><g><g><g><g><g><g><path d="M1392.2,1637.9c-4.3,0-8.6-1.2-12.6-3.6c-11.3-7-14.8-21.7-7.8-33l158.1-256.6c34.3-55.6,52.3-119.6,52.1-185          l-1.7-442.7c0-12.6-6.1-23.7-16.7-30.5s-23.2-7.8-34.6-2.6c-13.1,5.9-21.6,19-21.5,33.4c0.3,53.4,1,126.6,1.9,219.2          c0.4,44.4,0.9,93.1,1.4,145.6c0.1,13.2-10.5,24.1-23.8,24.2c-0.1,0-0.2,0-0.2,0c-13.2,0-23.9-10.6-24-23.8          c-0.5-52.6-0.9-101.2-1.4-145.6c-0.9-92.7-1.6-165.9-1.9-219.4c-0.2-33.4,19.4-63.8,49.9-77.4c26.2-11.7,56.2-9.5,80.3,6.1          c24.1,15.5,38.5,42,38.6,70.6l1.7,442.7c0.3,74.3-20.2,147.1-59.2,210.3l-158.1,256.6          C1408.1,1633.9,1400.3,1637.9,1392.2,1637.9z"/></g><g><path d="M1230.9,1538.5c-9.4,0-18.4-5.6-22.2-14.9c-3.8-9.2-6.9-18.6-9.2-28.1c-24.7-98.4,33.8-191.6,53.1-222.3L1369,1084          c12.6-20.5,33.4-35.2,56.9-40.2c23.5-5,47.4-0.4,67.1,13.1c38.6,26.3,49.6,78.1,25.1,117.9l-94.3,153          c-6.9,11.3-21.7,14.8-33,7.8c-11.3-6.9-14.8-21.7-7.8-33l94.3-153c11-17.9,6.1-41.2-11.3-53c-8.8-6-19.5-8.1-30-5.8          c-10.9,2.3-20.2,8.9-26.1,18.4l-116.6,189.2c0,0.1-0.1,0.1-0.1,0.2c-16.6,26.4-67,106.6-47.3,185.2          c1.8,7.3,4.2,14.6,7.1,21.6c5,12.3-0.8,26.3-13.1,31.3C1237,1537.9,1233.9,1538.5,1230.9,1538.5z"/></g></g><g><path d="M1363.5,1792c-4.3,0-8.6-1.2-12.6-3.6l-281.1-173.2c-11.3-6.9-14.8-21.7-7.8-33l76.7-124.5         c3.3-5.4,8.7-9.3,14.9-10.8c6.2-1.5,12.7-0.4,18.1,2.9l281.1,173.2c5.4,3.3,9.3,8.7,10.8,14.9c1.5,6.2,0.4,12.7-2.9,18.1         l-76.7,124.5C1379.4,1787.9,1371.6,1792,1363.5,1792z M1115.5,1587l240.2,148l51.5-83.6l-240.2-148L1115.5,1587z"/></g></g></g></g></g><g><g><g><g><g><g><path d="M655.8,1637.9c-8,0-15.9-4.1-20.5-11.4l-158.1-256.6c-39-63.3-59.5-136-59.2-210.3l1.7-442.7          c0.1-28.7,14.5-55.1,38.6-70.6s54.1-17.8,80.3-6.1c30.5,13.7,50,44,49.9,77.4c-0.3,53.6-1,126.8-1.9,219.6          c-0.4,44.4-0.9,93-1.4,145.4c-0.1,13.2-10.8,23.8-24,23.8c-0.1,0-0.2,0-0.2,0c-13.2-0.1-23.9-11-23.8-24.2          c0.5-52.5,0.9-101.1,1.4-145.5c0.9-92.7,1.6-166,1.9-219.4c0.1-14.4-8.4-27.5-21.5-33.4c-11.5-5.1-24.1-4.2-34.6,2.6          s-16.6,17.9-16.7,30.5l-1.7,442.7c-0.2,65.3,17.8,129.3,52.1,185l158.1,256.6c7,11.3,3.4,26.1-7.8,33          C664.4,1636.8,660.1,1637.9,655.8,1637.9z"/></g><g><path d="M817.1,1538.5c-3,0-6.1-0.6-9.1-1.8c-12.3-5-18.1-19-13.1-31.3c2.9-7,5.3-14.3,7.1-21.6          c19.8-78.6-30.7-158.8-47.3-185.2c0-0.1-0.1-0.1-0.1-0.2l-116.6-189.2c-5.9-9.5-15.1-16.1-26.1-18.4          c-10.6-2.2-21.2-0.2-30,5.8c-17.3,11.8-22.3,35.1-11.3,53l94.3,153c7,11.3,3.4,26.1-7.8,33c-11.3,6.9-26.1,3.4-33-7.8          l-94.3-153c-24.5-39.8-13.5-91.5,25.1-117.9c19.7-13.5,43.6-18.1,67.1-13.1c23.6,5,44.3,19.7,57,40.2l116.5,189.1          c19.3,30.8,77.8,124,53.1,222.4c-2.4,9.5-5.5,19-9.2,28.1C835.5,1532.9,826.6,1538.5,817.1,1538.5z"/></g></g><g><path d="M684.5,1792c-1.8,0-3.7-0.2-5.5-0.7c-6.2-1.5-11.5-5.3-14.9-10.8l-76.7-124.5c-7-11.3-3.4-26.1,7.8-33l281.1-173.2         c11.3-6.9,26.1-3.4,33,7.8l76.7,124.5c3.3,5.4,4.4,11.9,2.9,18.1c-1.5,6.2-5.3,11.6-10.8,14.9L697,1788.4         C693.2,1790.8,688.9,1792,684.5,1792z M640.8,1651.3l51.5,83.6l240.2-148l-51.5-83.6L640.8,1651.3z"/></g></g></g></g></g></g><g><g><g><g><g><path d="M1024.2,602.5h-0.4c-85.3,0-154.8-69.4-154.8-154.8v-37c0-85.3,69.4-154.8,154.8-154.8h0.4        c85.3,0,154.8,69.4,154.8,154.8v37C1179,533.1,1109.5,602.5,1024.2,602.5z M1023.8,304c-58.9,0-106.8,47.9-106.8,106.8v37        c0,58.9,47.9,106.8,106.8,106.8h0.4c58.9,0,106.8-47.9,106.8-106.8v-37c0-58.9-47.9-106.8-106.8-106.8H1023.8z"/></g></g><g><g><path d="M1284,994.1H764c-13.2,0-24-10.8-24-24V820.3c0-46.3,25.2-89.2,65.7-111.7l87.2-48.6c25.3-14.1,41-40.8,41-69.8v-29.6        c0-13.2,10.8-24,24-24s24,10.8,24,24v29.6c0,46.3-25.2,89.2-65.7,111.7L829,750.5c-25.3,14.1-41,40.8-41,69.8v125.8H1260        V820.3c0-29-15.7-55.7-41-69.8l-87.2-48.6c-40.5-22.6-65.7-65.4-65.7-111.7v-29.6c0-13.2,10.8-24,24-24s24,10.8,24,24v29.6        c0,29,15.7,55.7,41,69.8l87.2,48.6c40.5,22.6,65.7,65.4,65.7,111.7v149.8C1308,983.4,1297.3,994.1,1284,994.1z"/></g></g></g></g><g><g><path d="M1149.9,994.1c-13.2,0-24-10.8-24-24V824.8c0-13.2,10.8-24,24-24s24,10.8,24,24v145.3      C1173.9,983.4,1163.2,994.1,1149.9,994.1z"/></g><g><path d="M898.1,994.1c-13.2,0-24-10.8-24-24V824.8c0-13.2,10.8-24,24-24s24,10.8,24,24v145.3      C922.1,983.4,911.4,994.1,898.1,994.1z"/></g></g></g></g><text x="0" y="2063" fill="#000000" font-size="5px" font-weight="bold" font-family="'Helvetica Neue', Helvetica, Arial-Unicode, Arial, Sans-serif">Created by Iconbunny</text><text x="0" y="2068" fill="#000000" font-size="5px" font-weight="bold" font-family="'Helvetica Neue', Helvetica, Arial-Unicode, Arial, Sans-serif">from the Noun Project</text></svg>