<svg xmlns="http://www.w3.org/2000/svg" xmlns:xlink="http://www.w3.org/1999/xlink" xmlns:serif="http://www.serif.com/" viewBox="0 0 267 333.75" version="1.1" xml:space="preserve" style="" x="0px" y="0px" fill-rule="evenodd" clip-rule="evenodd" stroke-linejoin="round" stroke-miterlimit="2"><g><path d="M216.666,50.04l-50,0l-0,-16.707c-0,-2.299 -1.867,-4.166 -4.167,-4.166c-2.3,-0 -4.167,1.867 -4.167,4.166l0,16.707l-50,0l0,-16.707c0,-2.299 -1.867,-4.166 -4.166,-4.166c-2.3,-0 -4.167,1.867 -4.167,4.166l-0,16.707l-50,0l-0,-16.707c-0,-2.299 -1.867,-4.166 -4.167,-4.166c-2.299,-0 -4.166,1.867 -4.166,4.166l-0,16.707l-16.667,0c-6.904,0 -12.5,5.597 -12.5,12.5l-0,162.46c-0,6.904 5.596,12.5 12.5,12.5l216.667,-0c6.903,-0 12.5,-5.596 12.5,-12.5l-0,-162.46c-0,-6.903 -5.597,-12.5 -12.5,-12.5l-16.667,0l-0,-16.707c-0,-2.299 -1.867,-4.166 -4.167,-4.166c-2.299,-0 -4.166,1.867 -4.166,4.166l-0,16.707Zm29.166,41.627l0,133.333c0,2.301 -1.865,4.167 -4.166,4.167c-0.001,-0 -216.667,-0 -216.667,-0c-2.301,-0 -4.167,-1.866 -4.167,-4.167l0,-133.333l225,-0Zm-25,91.666c0,-2.301 -1.865,-4.166 -4.166,-4.166l-16.667,-0c-2.301,-0 -4.167,1.865 -4.167,4.166l0,16.667c0,2.301 1.866,4.167 4.167,4.167l16.667,-0c2.301,-0 4.166,-1.866 4.166,-4.167l0,-16.667Zm-37.517,0c-0,-2.301 -1.866,-4.166 -4.167,-4.166l-16.666,-0c-2.302,-0 -4.167,1.865 -4.167,4.166l-0,16.667c-0,2.301 1.865,4.167 4.167,4.167l16.666,-0c2.301,-0 4.167,-1.866 4.167,-4.167l-0,-16.667Zm-37.517,0c-0,-2.301 -1.866,-4.166 -4.167,-4.166l-16.667,-0c-2.301,-0 -4.166,1.865 -4.166,4.166l-0,16.667c-0,2.301 1.865,4.167 4.166,4.167l16.667,-0c2.301,-0 4.167,-1.866 4.167,-4.167l-0,-16.667Zm-75.035,0c-0,-2.301 -1.865,-4.166 -4.167,-4.166l-16.666,-0c-2.302,-0 -4.167,1.865 -4.167,4.166l-0,16.667c-0,2.301 1.865,4.167 4.167,4.167l16.666,-0c2.302,-0 4.167,-1.866 4.167,-4.167l-0,-16.667Zm37.517,0c0,-2.301 -1.865,-4.166 -4.166,-4.166l-16.667,-0c-2.301,-0 -4.167,1.865 -4.167,4.166l0,16.667c0,2.301 1.866,4.167 4.167,4.167l16.667,-0c2.301,-0 4.166,-1.866 4.166,-4.167l0,-16.667Zm-8.333,4.167l-0,8.333c0,0 -8.333,0 -8.333,0c-0,0 -0,-8.333 -0,-8.333l8.333,-0Zm75.035,-0l-0,8.333c-0,0 -8.334,0 -8.334,0c0,0 0,-8.333 0,-8.333l8.334,-0Zm37.517,-0l-0,8.333c-0,0 -8.333,0 -8.333,0c-0,0 -0,-8.333 -0,-8.333l8.333,-0Zm-150.069,-0l-0,8.333c-0,0 -8.334,0 -8.334,0c0,0 0,-8.333 0,-8.333l8.334,-0Zm75.034,-0l0,8.333c0,0 -8.333,0 -8.333,0c-0,0 -0,-8.333 -0,-8.333l8.333,-0Zm-66.701,-41.667c-0,-2.301 -1.865,-4.166 -4.167,-4.166l-16.666,-0c-2.302,-0 -4.167,1.865 -4.167,4.166l-0,16.667c-0,2.301 1.865,4.167 4.167,4.167l16.666,-0c2.302,-0 4.167,-1.866 4.167,-4.167l-0,-16.667Zm75.035,0c-0,-2.301 -1.866,-4.166 -4.167,-4.166l-16.667,-0c-2.301,-0 -4.166,1.865 -4.166,4.166l-0,16.667c-0,2.301 1.865,4.167 4.166,4.167l16.667,-0c2.301,-0 4.167,-1.866 4.167,-4.167l-0,-16.667Zm37.517,0c-0,-2.301 -1.866,-4.166 -4.167,-4.166l-16.666,-0c-2.302,-0 -4.167,1.865 -4.167,4.166l-0,16.667c-0,2.301 1.865,4.167 4.167,4.167l16.666,-0c2.301,-0 4.167,-1.866 4.167,-4.167l-0,-16.667Zm-75.035,0c0,-2.301 -1.865,-4.166 -4.166,-4.166l-16.667,-0c-2.301,-0 -4.167,1.865 -4.167,4.166l0,16.667c0,2.301 1.866,4.167 4.167,4.167l16.667,-0c2.301,-0 4.166,-1.866 4.166,-4.167l0,-16.667Zm112.552,0c0,-2.301 -1.865,-4.166 -4.166,-4.166l-16.667,-0c-2.301,-0 -4.167,1.865 -4.167,4.166l0,16.667c0,2.301 1.866,4.167 4.167,4.167l16.667,-0c2.301,-0 4.166,-1.866 4.166,-4.167l0,-16.667Zm-120.885,4.167l-0,8.333c0,0 -8.333,0 -8.333,0c-0,0 -0,-8.333 -0,-8.333l8.333,-0Zm75.035,-0l-0,8.333c-0,0 -8.334,0 -8.334,0c0,0 0,-8.333 0,-8.333l8.334,-0Zm37.517,-0l-0,8.333c-0,0 -8.333,0 -8.333,0c-0,0 -0,-8.333 -0,-8.333l8.333,-0Zm-150.069,-0l-0,8.333c-0,0 -8.334,0 -8.334,0c0,0 0,-8.333 0,-8.333l8.334,-0Zm75.034,-0l0,8.333c0,0 -8.333,0 -8.333,0c-0,0 -0,-8.333 -0,-8.333l8.333,-0Zm-29.184,-41.667c0,-2.301 -1.865,-4.166 -4.166,-4.166l-16.667,-0c-2.301,-0 -4.167,1.865 -4.167,4.166l0,16.667c0,2.301 1.866,4.167 4.167,4.167l16.667,-0c2.301,-0 4.166,-1.866 4.166,-4.167l0,-16.667Zm37.518,0c-0,-2.301 -1.866,-4.166 -4.167,-4.166l-16.667,-0c-2.301,-0 -4.166,1.865 -4.166,4.166l-0,16.667c-0,2.301 1.865,4.167 4.166,4.167l16.667,-0c2.301,-0 4.167,-1.866 4.167,-4.167l-0,-16.667Zm-75.035,0c-0,-2.301 -1.865,-4.166 -4.167,-4.166l-16.666,-0c-2.302,-0 -4.167,1.865 -4.167,4.166l-0,16.667c-0,2.301 1.865,4.167 4.167,4.167l16.666,-0c2.302,-0 4.167,-1.866 4.167,-4.167l-0,-16.667Zm112.552,0c-0,-2.301 -1.866,-4.166 -4.167,-4.166l-16.666,-0c-2.302,-0 -4.167,1.865 -4.167,4.166l-0,16.667c-0,2.301 1.865,4.167 4.167,4.167l16.666,-0c2.301,-0 4.167,-1.866 4.167,-4.167l-0,-16.667Zm26.201,-0.304l-1.183,1.137c-0,-0 -1.184,-1.137 -1.184,-1.137c-2.587,-2.483 -6.788,-2.483 -9.375,0c-2.587,2.484 -2.587,6.517 -0,9.001l10.559,10.137l10.559,-10.137c2.587,-2.484 2.587,-6.517 -0,-9.001c-2.587,-2.483 -6.788,-2.483 -9.376,0Zm-109.569,4.471l-0,8.333c0,0 -8.333,0 -8.333,0c-0,0 -0,-8.333 -0,-8.333l8.333,-0Zm75.035,-0l-0,8.333c-0,0 -8.334,0 -8.334,0c0,0 0,-8.333 0,-8.333l8.334,-0Zm-112.552,-0l-0,8.333c-0,0 -8.334,0 -8.334,0c0,0 0,-8.333 0,-8.333l8.334,-0Zm75.034,-0l0,8.333c0,0 -8.333,0 -8.333,0c-0,0 -0,-8.333 -0,-8.333l8.333,-0Zm87.535,-54.126l-0,8.293c-0,2.299 -1.867,4.166 -4.167,4.166c-2.299,0 -4.166,-1.867 -4.166,-4.166l-0,-8.293l-50,-0l-0,8.293c-0,2.299 -1.867,4.166 -4.167,4.166c-2.3,0 -4.167,-1.867 -4.167,-4.166l0,-8.293l-50,-0l0,8.293c0,2.299 -1.867,4.166 -4.166,4.166c-2.3,0 -4.167,-1.867 -4.167,-4.166l-0,-8.293l-50,-0l-0,8.293c-0,2.299 -1.867,4.166 -4.167,4.166c-2.299,0 -4.166,-1.867 -4.166,-4.166l-0,-8.293l-16.667,-0c-2.301,-0 -4.167,1.865 -4.167,4.166l0,20.793l225,0l0,-20.793c0,-2.301 -1.865,-4.166 -4.166,-4.166l-16.667,-0Z"/></g><text x="0" y="282" fill="#000000" font-size="5px" font-weight="bold" font-family="'Helvetica Neue', Helvetica, Arial-Unicode, Arial, Sans-serif">Created by erifqizeicon</text><text x="0" y="287" fill="#000000" font-size="5px" font-weight="bold" font-family="'Helvetica Neue', Helvetica, Arial-Unicode, Arial, Sans-serif">from the Noun Project</text></svg>