<svg xmlns="http://www.w3.org/2000/svg" version="1.1" viewBox="-5.0 -10.0 110.0 135.0">
 <g>
  <path d="m51.812 72.434h-3.625c-2.25 0-4.1797-1.6055-4.5859-3.8164-0.089843-0.55859-0.51172-1.0078-1.0625-1.1328-0.27344-0.070313-0.54687-0.14062-0.8125-0.21875-0.53906-0.16406-1.125 0.015625-1.4805 0.45312-1.4609 1.7109-3.9336 2.1367-5.8828 1.0117l-3.1367-1.8125c-1.9492-1.125-2.8203-3.4844-2.0625-5.6055 0.20313-0.53125 0.0625-1.125-0.35156-1.5117-0.19922-0.19531-0.39453-0.39062-0.58594-0.58594-0.38281-0.41406-0.98047-0.55078-1.5078-0.34766-2.1211 0.75391-4.4805-0.11328-5.6055-2.0625l-1.8125-3.1406h-0.003906c-1.125-1.9453-0.69531-4.4219 1.0156-5.8828 0.4375-0.35547 0.61719-0.94141 0.45312-1.4805-0.078125-0.26953-0.14844-0.53906-0.21875-0.8125-0.125-0.55078-0.57422-0.96875-1.1328-1.0586-2.2148-0.40625-3.8242-2.3359-3.8242-4.5859v-3.6328c0-2.25 1.6055-4.1797 3.8203-4.5859 0.55859-0.089844 1.0039-0.50781 1.1289-1.0586 0.070313-0.27344 0.14063-0.54688 0.21875-0.81641 0.16406-0.53906-0.011718-1.125-0.45312-1.4766-1.7109-1.4648-2.1367-3.9375-1.0117-5.8867l1.8125-3.1367c1.125-1.9492 3.4844-2.8203 5.6094-2.0625 0.52734 0.20312 1.125 0.066406 1.5078-0.35156 0.19531-0.19531 0.39062-0.39063 0.58594-0.58594 0.41406-0.38281 0.55078-0.98047 0.34766-1.5078-0.75391-2.1211 0.11328-4.4805 2.0625-5.6094l3.1367-1.8125 0.003906 0.003907c1.9492-1.125 4.4219-0.69922 5.8828 1.0117 0.35547 0.44141 0.94141 0.61719 1.4805 0.45312 0.26953-0.078124 0.53906-0.14844 0.8125-0.21875 0.55078-0.125 0.96875-0.57422 1.0586-1.1328 0.40625-2.2148 2.3398-3.8242 4.5938-3.8242h3.625c2.25 0 4.1797 1.6055 4.5859 3.8203 0.089843 0.55859 0.51172 1.0039 1.0625 1.1289 0.27344 0.070312 0.54297 0.14062 0.8125 0.21875 0.53516 0.16797 1.1211-0.011719 1.4805-0.44922h-0.003906c1.4609-1.7109 3.9375-2.1406 5.8867-1.0156l3.1367 1.8125c1.9531 1.125 2.8203 3.4883 2.0625 5.6094-0.20313 0.52734-0.066407 1.125 0.35156 1.5117 0.19922 0.19531 0.39453 0.39062 0.58594 0.58594 0.38281 0.41016 0.98047 0.55078 1.5078 0.35156 2.1211-0.75781 4.4805 0.10938 5.6094 2.0586l1.8125 3.1367c1.125 1.9492 0.69922 4.4258-1.0156 5.8828v0.003906c-0.4375 0.35547-0.61328 0.94141-0.44922 1.4805 0.078125 0.26953 0.14844 0.53906 0.21875 0.8125 0.125 0.55078 0.57031 0.96875 1.1289 1.0586 2.2148 0.40625 3.8203 2.3359 3.8203 4.5898v3.6328c0 2.25-1.6055 4.1797-3.8203 4.5859-0.55859 0.089843-1.0039 0.51172-1.1289 1.0625-0.066406 0.27344-0.14062 0.54687-0.21875 0.8125h0.003907c-0.16797 0.53906 0.007812 1.125 0.44922 1.4805 1.7109 1.4609 2.1367 3.9336 1.0117 5.8828l-1.8125 3.1406v-0.003906c-1.1289 1.9531-3.4844 2.8164-5.6055 2.0625-0.53125-0.20313-1.125-0.0625-1.5117 0.34766-0.19531 0.20312-0.39063 0.39844-0.58594 0.58594v0.003907c-0.41406 0.38281-0.55078 0.98047-0.34766 1.5078 0.75391 2.1211-0.11328 4.4805-2.0625 5.6055l-3.1367 1.8125c-1.9531 1.125-4.4258 0.69922-5.8867-1.0156-0.35547-0.4375-0.94141-0.61328-1.4805-0.44922-0.26953 0.078125-0.53906 0.14844-0.8125 0.21875-0.55078 0.125-0.96875 0.57031-1.0586 1.1289-0.40625 2.2148-2.3398 3.8203-4.5898 3.8203zm-10.496-8.1562v0.003906c0.40625 0 0.8125 0.054688 1.207 0.16406 0.24219 0.070313 0.48828 0.13281 0.73437 0.19531 1.6602 0.41016 2.9258 1.7578 3.2227 3.4375v0.003906c0.15234 0.82031 0.87109 1.418 1.707 1.4219h3.625v-0.003906c0.83594-0.007812 1.5469-0.60156 1.707-1.4219v0.003906c0.30078-1.6836 1.5625-3.0273 3.2227-3.4336 0.24609-0.0625 0.48828-0.125 0.73437-0.19531 1.6406-0.47656 3.4062 0.0625 4.5039 1.3672 0.55078 0.62891 1.4648 0.78906 2.1914 0.37891l3.1367-1.8125c0.71875-0.42578 1.0391-1.2969 0.76562-2.0898v0.003906c-0.58594-1.6094-0.16797-3.4141 1.0664-4.5977 0.17969-0.17578 0.35938-0.35156 0.53516-0.53125v-0.003906c1.1836-1.2344 2.9844-1.6523 4.5898-1.0664v-0.003906c0.79297 0.28125 1.6758-0.039062 2.1016-0.76172l1.8125-3.1406c0.41016-0.73047 0.24609-1.6484-0.38672-2.1953h-0.003907c-1.3047-1.0977-1.8398-2.8672-1.3672-4.5078 0.070313-0.24219 0.13281-0.48828 0.19531-0.73438 0.41016-1.6562 1.7578-2.9219 3.4375-3.2188h0.003906c0.81641-0.16016 1.4102-0.875 1.4219-1.7109l-0.003907-3.6172c-0.007812-0.83203-0.60156-1.5469-1.4219-1.7031h0.003906c-1.6836-0.30078-3.0352-1.5664-3.4414-3.2266-0.0625-0.24609-0.125-0.49219-0.19531-0.73438-0.47656-1.6367 0.0625-3.4023 1.3672-4.5039 0.63281-0.54688 0.78906-1.4648 0.37891-2.1914l-1.8008-3.1367c-0.42578-0.71875-1.2969-1.0391-2.0859-0.76562-1.6094 0.58594-3.4102 0.16797-4.5938-1.0664-0.17578-0.17969-0.35156-0.35937-0.53125-0.53125l-0.003906-0.003906c-1.2344-1.1836-1.6523-2.9883-1.0664-4.5938 0.27344-0.78906-0.046876-1.6641-0.76563-2.0898l-3.1367-1.8125-0.003906 0.003907c-0.72656-0.41016-1.6406-0.25391-2.1875 0.37891-1.1016 1.3047-2.8672 1.8398-4.5039 1.3672-0.24219-0.070312-0.48828-0.13281-0.73438-0.19531-1.668-0.40234-2.9375-1.7539-3.2383-3.4414-0.16016-0.82031-0.87109-1.4141-1.707-1.4219h-3.6211c-0.83203 0.011719-1.543 0.60547-1.7031 1.4219-0.29688 1.6836-1.5625 3.0312-3.2188 3.4414-0.24609 0.0625-0.49219 0.125-0.73438 0.19531h-0.003906c-1.6406 0.47266-3.4062-0.0625-4.5078-1.3672h0.003907c-0.55078-0.63281-1.4648-0.78906-2.1914-0.37891l-3.1367 1.8125v-0.003907c-0.71875 0.42578-1.0391 1.3008-0.76953 2.0898 0.58594 1.6055 0.16797 3.4062-1.0664 4.5898-0.17969 0.17578-0.35938 0.35547-0.53516 0.53516v0.003906c-1.1836 1.2305-2.9844 1.6523-4.5898 1.0625-0.79297-0.26953-1.6641 0.050782-2.0898 0.76953l-1.8125 3.1367c-0.41797 0.72656-0.25781 1.6445 0.37891 2.1875v0.003907c1.3047 1.0977 1.8438 2.8633 1.3672 4.5039-0.070313 0.24219-0.13281 0.48828-0.19531 0.73438v0.003906c-0.40625 1.6562-1.7539 2.9219-3.4375 3.2227-0.82031 0.15625-1.4141 0.87109-1.4219 1.7031v3.6328c0.007812 0.83594 0.60156 1.5469 1.4219 1.707 1.6836 0.30078 3.0312 1.5625 3.4375 3.2227 0.0625 0.24609 0.125 0.48828 0.19531 0.73437 0.47656 1.6406-0.058594 3.4062-1.3672 4.5078-0.63672 0.54297-0.79297 1.4609-0.375 2.1875l1.8125 3.1406v-0.003906c0.42187 0.72266 1.2969 1.0391 2.0859 0.76562v0.003906c1.6055-0.58594 3.4062-0.16797 4.5938 1.0625 0.17578 0.17969 0.35156 0.35938 0.53516 0.53516 1.2305 1.1875 1.6484 2.9883 1.0664 4.5938-0.27344 0.78906 0.046874 1.6641 0.76562 2.0859l3.1367 1.8125c0.72656 0.41797 1.6445 0.25781 2.1836-0.37891 0.82031-0.97656 2.0273-1.5391 3.3008-1.5391z"/>
  <path d="m50 54.688c-4.4219 0-8.6602-1.7578-11.785-4.8828s-4.8789-7.3633-4.8789-11.781c0-4.4219 1.7539-8.6602 4.8789-11.785s7.3633-4.8828 11.785-4.8828 8.6602 1.7578 11.785 4.8828 4.8789 7.3633 4.8789 11.785c-0.003906 4.418-1.7617 8.6523-4.8867 11.777-3.1211 3.125-7.3594 4.8828-11.777 4.8867zm0-30.398c-5.5547 0-10.566 3.3438-12.691 8.4766s-0.94922 11.043 2.9805 14.973c3.9258 3.9258 9.8359 5.1016 14.969 2.9766 5.1328-2.1289 8.4805-7.1367 8.4766-12.691-0.007813-7.582-6.1523-13.727-13.734-13.734z"/>
  <path d="m50 62.461c-6.4805 0-12.699-2.5742-17.281-7.1562-4.582-4.582-7.1562-10.797-7.1562-17.281-0.003906-6.4805 2.5703-12.695 7.1562-17.277 4.582-4.5859 10.797-7.1602 17.277-7.1602 6.4844 0 12.699 2.5742 17.281 7.1562 4.582 4.5859 7.1562 10.801 7.1602 17.281-0.007812 6.4805-2.5859 12.691-7.168 17.273-4.5781 4.5781-10.789 7.1562-17.27 7.1641zm0-45.945v0.003906c-5.7031-0.003906-11.176 2.2617-15.211 6.2969-4.0312 4.0312-6.2969 9.5039-6.2969 15.207-0.003907 5.707 2.2656 11.176 6.2969 15.211 4.0352 4.0312 9.5039 6.3008 15.211 6.2969 5.7031 0 11.176-2.2656 15.207-6.2969 4.0352-4.0352 6.3008-9.5078 6.3008-15.211-0.007812-5.7031-2.2773-11.168-6.3086-15.199s-9.4961-6.3008-15.199-6.3086z"/>
  <path d="m45.078 47.07c-0.39453 0-0.76953-0.16016-1.043-0.4375-0.27734-0.28125-0.42969-0.66016-0.42188-1.0547l0.082031-4.7031-2.8281-3.7656c-0.28516-0.38281-0.37109-0.87891-0.22266-1.332 0.14844-0.45703 0.50781-0.80859 0.96484-0.94922l4.4922-1.3672 2.6953-3.8516h0.003906c0.27344-0.39062 0.71875-0.625 1.1992-0.625 0.47656 0 0.92188 0.23438 1.1992 0.625l2.707 3.8516 4.4922 1.3672c0.45703 0.14062 0.81641 0.49219 0.96484 0.94922 0.14844 0.45312 0.0625 0.94922-0.22266 1.332l-2.8281 3.7539 0.082031 4.7031v-0.003906c0.007813 0.48047-0.21875 0.92969-0.60547 1.2109-0.38672 0.28125-0.88281 0.35547-1.3359 0.20312l-4.4531-1.5234-4.4453 1.5312c-0.15234 0.054687-0.3125 0.082031-0.47656 0.085937zm4.9219-4.6328c0.16016 0 0.32422 0.027344 0.47656 0.078125l2.9453 1.0156-0.054687-3.1133c-0.003907-0.32812 0.097656-0.64453 0.29687-0.90625l1.875-2.4844-2.9766-0.91406h-0.007812c-0.30859-0.09375-0.58203-0.29297-0.76953-0.55859l-1.7852-2.5469-1.7891 2.5391c-0.18359 0.26562-0.45703 0.46484-0.76563 0.55859l-2.9766 0.91406 1.875 2.4844h-0.007812c0.19922 0.26172 0.30078 0.57812 0.29687 0.90625l-0.054687 3.1133 2.9453-1.0156c0.15234-0.046874 0.31641-0.070312 0.47656-0.070312z"/>
  <path d="m27.23 96.387c-0.082031 0-0.16797-0.007813-0.25-0.019531-0.60156-0.10547-1.0781-0.57422-1.1914-1.1719l-1.9531-10.652-10.211 3.6211c-0.57812 0.20703-1.2227 0.03125-1.6133-0.44141-0.39453-0.47266-0.44922-1.1367-0.14453-1.668l16.375-28.359c0.19141-0.33594 0.51172-0.58203 0.88672-0.68359 0.375-0.10156 0.77734-0.046875 1.1133 0.14453 0.69922 0.40625 0.94141 1.3047 0.53906 2.0039l-14.387 24.91 8.0781-2.875h-0.003906c0.40625-0.14062 0.85547-0.10156 1.2266 0.11328 0.37109 0.21484 0.62891 0.58203 0.70703 1.0039l1.5469 8.4297 14.48-25.078c0.19531-0.33984 0.51562-0.58594 0.89062-0.68359 0.375-0.10156 0.77734-0.050781 1.1133 0.14453 0.69922 0.40625 0.94141 1.3008 0.53516 2.0039l-16.469 28.527c-0.26172 0.45312-0.74609 0.73047-1.2695 0.73047z"/>
  <path d="m24.961 84.043c-0.25781 0-0.51172-0.066407-0.73438-0.19531-0.69922-0.40625-0.9375-1.3008-0.53125-2l9.0781-15.727c0.19141-0.33594 0.51172-0.58203 0.88672-0.68359s0.77734-0.046875 1.1133 0.14844c0.69922 0.40234 0.94141 1.3008 0.53906 2l-9.082 15.727c-0.26172 0.45312-0.74609 0.73047-1.2695 0.73047z"/>
  <path d="m37.75 78.164c-0.25391 0-0.50781-0.070312-0.72656-0.19531l-14.094-8.1367-0.003907-0.003906c-0.69922-0.40234-0.94141-1.3008-0.53516-2s1.3008-0.94141 2-0.53906l14.094 8.1367c0.57812 0.33203 0.85938 1.0117 0.6875 1.6523-0.17578 0.64062-0.75781 1.0859-1.4219 1.082z"/>
  <path d="m72.77 96.387c-0.52344 0-1.0078-0.27734-1.2695-0.73047l-16.469-28.531c-0.40625-0.69922-0.16406-1.5977 0.53516-2 0.69922-0.40625 1.5977-0.16406 2.0039 0.53516l14.477 25.082 1.5469-8.4297h0.003906c0.078125-0.42188 0.33594-0.78906 0.70703-1.0039 0.37109-0.21484 0.82031-0.25391 1.2266-0.10938l8.0781 2.875-14.387-24.914c-0.40625-0.69922-0.16406-1.5977 0.53516-2.0039 0.70313-0.40234 1.5977-0.16016 2.0039 0.53906l16.371 28.359c0.30859 0.53125 0.25 1.1953-0.14062 1.668-0.39453 0.47266-1.0391 0.64844-1.6172 0.44141l-10.203-3.6289-1.9531 10.652c-0.11328 0.60156-0.58984 1.0703-1.1953 1.1719-0.082032 0.015625-0.16797 0.027344-0.25391 0.027344z"/>
  <path d="m75.039 84.043c-0.52344 0-1.0078-0.27734-1.2695-0.73047l-9.0781-15.734c-0.40625-0.69922-0.16406-1.5977 0.53516-2 0.70313-0.40625 1.5977-0.16406 2.0039 0.53516l9.0781 15.727c0.19531 0.33594 0.25 0.73438 0.15234 1.1133-0.097657 0.375-0.34375 0.69531-0.67969 0.89453v-0.003906c-0.22656 0.13281-0.48047 0.20312-0.74219 0.19922z"/>
  <path d="m62.246 78.164c-0.66016 0-1.2422-0.44531-1.4141-1.0859-0.17188-0.64453 0.10938-1.3203 0.68359-1.6484l14.094-8.1367v-0.003907c0.69922-0.40234 1.5938-0.16016 2 0.53906s0.16406 1.5977-0.53906 2l-14.094 8.1367h0.003907c-0.22266 0.12891-0.47656 0.19922-0.73438 0.19922z"/>
 </g>
<text x="0.0" y="117.5" font-size="5.0" font-weight="bold" font-family="Arbeit Regular, Helvetica, Arial-Unicode, Arial, Sans-serif" fill="#000000">Created by Designing Hub</text><text x="0.0" y="122.5" font-size="5.0" font-weight="bold" font-family="Arbeit Regular, Helvetica, Arial-Unicode, Arial, Sans-serif" fill="#000000">from Noun Project</text></svg>