<svg xmlns="http://www.w3.org/2000/svg" xmlns:xlink="http://www.w3.org/1999/xlink" version="1.1" x="0px" y="0px" viewBox="0 0 100 125" style="enable-background:new 0 0 100 100;" xml:space="preserve"><path d="M13.7,13.2c0-3-2.5-5.5-5.5-5.5c-3,0-5.5,2.5-5.5,5.5c0,3,2.5,5.5,5.5,5.5C11.3,18.7,13.7,16.3,13.7,13.2z M8.2,14.7  c-0.8,0-1.5-0.7-1.5-1.5c0-0.8,0.7-1.5,1.5-1.5c0.8,0,1.5,0.7,1.5,1.5C9.7,14.1,9.1,14.7,8.2,14.7z M91.8,16.8c-3,0-5.5,2.5-5.5,5.5  c0,3,2.5,5.5,5.5,5.5c3,0,5.5-2.5,5.5-5.5C97.3,19.2,94.8,16.8,91.8,16.8z M91.8,23.8c-0.8,0-1.5-0.7-1.5-1.5c0-0.8,0.7-1.5,1.5-1.5  c0.8,0,1.5,0.7,1.5,1.5C93.3,23.1,92.6,23.8,91.8,23.8z M32.1,54.8c0,1.4-1.1,2.5-2.5,2.5s-2.5-1.1-2.5-2.5s1.1-2.5,2.5-2.5  S32.1,53.4,32.1,54.8z M59.8,57.3c0,1.4-1.1,2.5-2.5,2.5c-1.4,0-2.5-1.1-2.5-2.5s1.1-2.5,2.5-2.5C58.7,54.8,59.8,55.9,59.8,57.3z   M61.9,6.2c0-1.4,1.1-2.5,2.5-2.5c1.4,0,2.5,1.1,2.5,2.5c0,1.4-1.1,2.5-2.5,2.5C63,8.7,61.9,7.6,61.9,6.2z M12.7,21.3  c1.4,0,2.5,1.1,2.5,2.5c0,1.4-1.1,2.5-2.5,2.5s-2.5-1.1-2.5-2.5C10.2,22.4,11.4,21.3,12.7,21.3z M19.6,3.7c0-1.4,1.1-2.5,2.5-2.5  c1.4,0,2.5,1.1,2.5,2.5c0,1.4-1.1,2.5-2.5,2.5C20.8,6.2,19.6,5.1,19.6,3.7z M89.3,8.7c0-1.4,1.1-2.5,2.5-2.5c1.4,0,2.5,1.1,2.5,2.5  c0,1.4-1.1,2.5-2.5,2.5C90.4,11.2,89.3,10.1,89.3,8.7z M40.3,58.6c0,1.4-1.1,2.5-2.5,2.5c-1.4,0-2.5-1.1-2.5-2.5  c0-1.4,1.1-2.5,2.5-2.5C39.2,56.1,40.3,57.2,40.3,58.6z M78.3,62.7c0-1.4,1.1-2.5,2.5-2.5c1.4,0,2.5,1.1,2.5,2.5s-1.1,2.5-2.5,2.5  C79.4,65.2,78.3,64.1,78.3,62.7z M29.6,82.8c0,1.4-1.1,2.5-2.5,2.5s-2.5-1.1-2.5-2.5c0-1.4,1.1-2.5,2.5-2.5S29.6,81.4,29.6,82.8z   M52.1,85.3c0,1.4-1.1,2.5-2.5,2.5c-1.4,0-2.5-1.1-2.5-2.5c0-1.4,1.1-2.5,2.5-2.5C51,82.8,52.1,83.9,52.1,85.3z M59.8,84  c0,1.4-1.1,2.5-2.5,2.5c-1.4,0-2.5-1.1-2.5-2.5s1.1-2.5,2.5-2.5C58.7,81.5,59.8,82.7,59.8,84z M85.8,88.2c0,1.4-1.1,2.5-2.5,2.5  c-1.4,0-2.5-1.1-2.5-2.5s1.1-2.5,2.5-2.5C84.7,85.7,85.8,86.8,85.8,88.2z M78.3,88.2c0,1.4-1.1,2.5-2.5,2.5c-1.4,0-2.5-1.1-2.5-2.5  s1.1-2.5,2.5-2.5C77.2,85.7,78.3,86.8,78.3,88.2z M45.6,81.5c0,1.4-1.1,2.5-2.5,2.5c-1.4,0-2.5-1.1-2.5-2.5s1.1-2.5,2.5-2.5  C44.5,79,45.6,80.2,45.6,81.5z M70.5,9.8c0-1.1,0.9-2,2-2h3v-3c0-1.1,0.9-2,2-2s2,0.9,2,2v3h3c1.1,0,2,0.9,2,2s-0.9,2-2,2h-3v3  c0,1.1-0.9,2-2,2s-2-0.9-2-2v-3h-3C71.3,11.8,70.5,10.9,70.5,9.8z M38.9,40.4c0.1-1.1,1.1-1.9,2.2-1.7l4.1,0.5  c1.1,0.1,1.9,1.1,1.7,2.2c-0.1,1-1,1.8-2,1.8c-0.1,0-0.2,0-0.3,0l-4.1-0.5C39.6,42.5,38.8,41.5,38.9,40.4z M92.5,41.4l-19-19.3  c-0.3-0.3-0.6-0.6-0.9-0.8c-2.5-5-7.5-8.6-13.3-9.3c-4-5.8-10.5-9.2-17.6-9.2c-11.9,0-21.5,9.7-21.5,21.5v2.2  c-3.3,1.3-6.5,2.8-9.6,4.4c-1.5,0.8-2.3,2.2-2.3,3.8v0.1c0,0,0,0,0,0c0,0,0,0.1,0,0.1v48c0,3.2,2.4,6,5.6,6.5l72.5,9.2  c0.3,0,0.6,0.1,0.9,0.1c1.6,0,3.1-0.6,4.3-1.6c1.4-1.2,2.2-3,2.2-4.9V44.5c0,0,0-0.1,0-0.1C93.8,43.3,93.3,42.2,92.5,41.4z   M24.1,24.3c0-9.7,7.8-17.5,17.5-17.5c4.8,0,9.3,2,12.6,5.4c-1.8,0.3-3.6,0.9-5.3,1.9c-1,0.5-1.3,1.8-0.8,2.7  c0.2,0.3,0.4,0.6,0.7,0.8c0.6,0.4,1.3,0.4,2,0c1.7-0.9,3.6-1.5,5.5-1.6c0.3,0,0.6,0,0.9,0c3.3,0,6.3,1.2,8.6,3.2  c1.5,1.3,2.7,3,3.5,4.9c0.7,1.6,1,3.3,1,5.1v2.4c-8.7,2.7-17.6,2.7-26.3,0v-1.1v-1.3c0-1.6,0.3-3.1,0.8-4.5c0-0.1,0.1-0.3,0.1-0.4  l0.1-0.1c0,0,0,0-0.1,0c0.1-0.9-0.4-1.8-1.3-2.1c-1-0.4-2.2,0.2-2.6,1.2c-0.2,0.5-0.4,1.1-0.5,1.6c-0.3,1.3-0.5,2.7-0.5,4.1  c0,0.1,0,0.1,0,0.2v1.6c-4.6-0.1-9.2-0.8-13.8-2.1c-0.8-0.2-1.5-0.4-2.3-0.7v-2.8V24.3z M12.2,83V39L34,41.8  c1.1,0.1,2.1-0.6,2.2-1.7c0.1-1.1-0.6-2.1-1.7-2.2l-22-2.8c-0.1,0-0.2,0-0.2-0.2c0-0.2,0.1-0.2,0.1-0.3c2.7-1.4,5.5-2.7,8.3-3.9  c0.2,0.2,0.5,0.4,0.8,0.5c6.5,2.3,13.2,3.4,19.8,3.5c0,0,0,0,0,0c0.1,0,0.2,0.1,0.2,0.1c0.1,0,0.1,0,0.2,0.1c0,0,0,0,0.1,0  c5.2,1.8,10.4,2.6,15.6,2.6c5.3,0,10.6-0.9,15.8-2.7c0.8-0.3,1.3-1,1.3-1.9v-3.8c0-0.1,0-0.2,0-0.3l15.2,15.5c0.1,0,0.1,0.1,0.1,0.3  c-0.1,0.2-0.2,0.2-0.3,0.1L52.1,40c-1.1-0.1-2.1,0.6-2.2,1.7c-0.1,1.1,0.6,2.1,1.7,2.2L89,48.6c0.2,0,0.4,0,0.5,0c0.1,0,0.2,0,0.2,0  c0,0,0,0,0,0v5.1l-70.3-8.8c0,0-0.1,0-0.1,0c0,0-0.1,0-0.1,0c0,0-0.1,0-0.1,0c-0.1,0-0.1,0-0.2,0c-0.1,0-0.1,0-0.2,0  c-0.1,0-0.1,0-0.2,0.1c-0.1,0-0.1,0-0.2,0.1c-0.1,0-0.1,0.1-0.1,0.1c-0.1,0-0.1,0.1-0.2,0.1c0,0-0.1,0.1-0.1,0.1  c-0.1,0-0.1,0.1-0.2,0.1c0,0-0.1,0.1-0.1,0.1c0,0.1-0.1,0.1-0.1,0.2c0,0-0.1,0.1-0.1,0.2c0,0.1-0.1,0.1-0.1,0.2c0,0.1,0,0.1-0.1,0.2  c0,0.1,0,0.1,0,0.2c0,0,0,0,0,0.1c0,0,0,0.1,0,0.1c0,0,0,0.1,0,0.1v15.8c0,0,0,0.1,0,0.1c0,0.1,0,0.1,0,0.2c0,0.1,0,0.1,0,0.2  c0,0.1,0,0.1,0.1,0.2c0,0.1,0,0.1,0.1,0.2c0,0.1,0.1,0.1,0.1,0.2c0,0.1,0.1,0.1,0.1,0.2c0,0.1,0.1,0.1,0.1,0.1c0,0,0.1,0.1,0.1,0.1  c0,0,0.1,0.1,0.2,0.1c0,0,0.1,0.1,0.2,0.1c0.1,0,0.1,0.1,0.2,0.1c0.1,0,0.1,0.1,0.2,0.1c0.1,0,0.1,0,0.2,0.1c0.1,0,0.1,0,0.2,0  c0,0,0,0,0.1,0l48.9,6.1c0.1,0,0.2,0,0.3,0c1,0,1.9-0.7,2-1.8c0.1-1.1-0.6-2.1-1.7-2.2L21.3,61V49.2l68.5,8.6v11.8l-14.7-1.8  c-1.1-0.1-2.1,0.6-2.2,1.7c-0.1,1.1,0.6,2.1,1.7,2.2l15.1,1.9v5.7l-70.3-8.8c0,0-0.1,0-0.1,0c0,0-0.1,0-0.1,0c0,0-0.1,0-0.1,0  c-0.1,0-0.1,0-0.2,0c-0.1,0-0.1,0-0.2,0c-0.1,0-0.1,0-0.2,0.1c-0.1,0-0.1,0-0.2,0.1c0,0-0.1,0-0.1,0.1c-0.1,0-0.1,0.1-0.2,0.1  c0,0-0.1,0.1-0.1,0.1c-0.1,0-0.1,0.1-0.2,0.2c0,0-0.1,0.1-0.1,0.1c0,0.1-0.1,0.1-0.1,0.2c0,0-0.1,0.1-0.1,0.2c0,0.1-0.1,0.1-0.1,0.2  c0,0.1,0,0.1-0.1,0.2c0,0.1,0,0.1,0,0.2c0,0,0,0,0,0.1c0,0,0,0.1,0,0.1c0,0,0,0.1,0,0.1v13.5l-2.9-0.4C13.2,85.3,12.2,84.3,12.2,83z   M88.9,94.1c-0.6,0.5-1.3,0.7-2,0.6l-65.6-8.3V74.7l68.5,8.6v9C89.8,93,89.5,93.7,88.9,94.1z M26.9,24.3v-0.1  c0.1-5.2,2.9-10,7.4-12.6c0.9-0.6,2.2-0.2,2.7,0.7c0.5,1,0.2,2.2-0.7,2.7c-2.9,1.7-4.8,4.6-5.3,7.9c-0.1,0.5-0.1,0.9-0.1,1.4  c0,1.1-0.9,2-2,2c0,0,0,0,0,0C27.8,26.3,26.9,25.4,26.9,24.3z M39.8,11.6c0-1.1,0.9-2,2-2h0c1.5,0,3.1,0.3,4.5,0.8  c1.1,0.3,1.6,1.5,1.3,2.5c-0.3,0.8-1.1,1.4-1.9,1.4c-0.2,0-0.4,0-0.6-0.1c-1.1-0.3-2.2-0.5-3.3-0.5C40.6,13.6,39.8,12.7,39.8,11.6z   M55.3,20.7c0-0.7,0.3-1.3,0.9-1.7c0.3-0.2,0.7-0.3,1.1-0.3c0.8,0,1.6,0.1,2.4,0.3c2.5,0.6,4.7,2.1,6.1,4.2c0.9,1.3,1.5,2.8,1.8,4.4  c0.2,1.1-0.6,2.1-1.7,2.3c-0.1,0-0.2,0-0.3,0c-1,0-1.8-0.7-2-1.7c-0.4-2.5-2.2-4.5-4.5-5.2c-0.6-0.2-1.2-0.3-1.9-0.3  C56.2,22.7,55.3,21.8,55.3,20.7z"/><text x="0" y="115" fill="#000000" font-size="5px" font-weight="bold" font-family="'Helvetica Neue', Helvetica, Arial-Unicode, Arial, Sans-serif">Created by Crystal Gordon</text><text x="0" y="120" fill="#000000" font-size="5px" font-weight="bold" font-family="'Helvetica Neue', Helvetica, Arial-Unicode, Arial, Sans-serif">from the Noun Project</text></svg>